Coordinates
version=1
nRows=14
nColumns=36
inDegrees=yes

Units are S.I. units (second, meters, Newtons, ...)
If the header above contains a line with 'inDegrees', this indicates whether rotational values are in degrees (yes) or radians (no).

endheader
time	pelvis_tilt	pelvis_list	pelvis_rotation	pelvis_tx	pelvis_ty	pelvis_tz	hip_flexion_r	hip_adduction_r	hip_rotation_r	knee_angle_r	knee_angle_r_beta	ankle_angle_r	subtalar_angle_r	mtp_angle_r	hip_flexion_l	hip_adduction_l	hip_rotation_l	knee_angle_l	knee_angle_l_beta	ankle_angle_l	subtalar_angle_l	mtp_angle_l	lumbar_extension	lumbar_bending	lumbar_rotation	arm_flex_r	arm_add_r	arm_rot_r	elbow_flex_r	pro_sup_r	arm_flex_l	arm_add_l	arm_rot_l	elbow_flex_l	pro_sup_l
     14.00000000	      8.53761446	     -3.14902140	      1.32765153	     -0.11892964	      0.97254159	      0.09866666	     25.80278158	     -2.40578910	    -13.08728890	      0.14481724	      0.00252754	      4.48551173	     16.26064428	     -7.49999987	     -3.48280657	      2.73567101	    -10.14582530	     15.58787083	      0.27205967	      1.53434887	      3.83046116	     -7.49999987	     -4.91326050	      0.32979635	     -2.02597463	     31.99865591	      3.41183740	     67.27947439	    124.74664089	     82.96014145	     37.93180474	     -1.84459390	     65.75373569	    127.39997543	     67.55018197
     14.01666670	      9.72181016	     -5.09295068	      2.71622864	     -0.11718072	      0.97253116	      0.09860054	     24.87768682	     -0.09203606	    -13.62411437	      0.24688994	      0.00430904	      0.94382659	     13.48628306	     -7.49999987	     -5.74071294	      0.45540648	    -12.10234458	     19.50601671	      0.34044422	     -9.22584515	      3.32919956	     -7.49999987	     -5.99265808	      2.69724301	     -3.22951914	     32.61460671	      3.43471239	     67.74978585	    124.78641208	     82.66715460	     37.74475951	     -1.94557440	     65.22539880	    127.58071983	     67.56511783
     14.03333330	     11.84330312	     -8.06766509	      4.57006250	     -0.12012903	      0.97701542	      0.09551293	     23.24350073	      2.47992475	    -12.99309984	      2.63244807	      0.04594489	     -1.37740508	      7.73519346	     -7.49999987	     -6.47968097	     -3.14877268	    -11.55415586	     22.27294209	      0.38873617	    -20.85929207	      2.14903762	     -7.49999987	     -8.45819115	      6.57423050	     -4.48819851	     33.62414796	      2.94849503	     68.05458751	    124.85953367	     83.42129360	     37.49858677	     -1.62793930	     64.72838544	    127.49216648	     68.13618442
     14.05000000	     11.67780429	     -9.41012798	      5.45723498	     -0.11990855	      0.97940939	      0.09462726	     26.42334070	      3.10427331	    -13.51721225	     10.35437415	      0.18071792	      0.20694961	      4.34001346	     -7.49999987	     -5.69108775	     -4.97584868	    -12.19198463	     23.86868412	      0.41658713	    -31.88554090	      1.80146763	     -7.49999987	     -8.46217739	      8.06266062	     -5.02222031	     33.65606878	      2.54239511	     68.03122977	    125.18612065	     85.09931220	     37.03121599	     -1.51772304	     64.53385010	    127.35762224	     69.98834020
     14.06666670	     12.02721885	    -10.54975420	      5.85927182	     -0.11479272	      0.98177871	      0.09465891	     29.22003020	      3.41186318	    -11.19046490	     20.99301676	      0.36639726	      3.54694496	     -1.46692117	     -7.49999987	     -4.88280841	     -6.27993692	    -10.86137383	     24.13255344	      0.42119251	    -33.69434248	      1.07893586	     -7.49999987	     -8.85442908	      9.22004464	     -4.81419031	     33.13710478	      1.70350095	     67.65504841	    125.68454385	     84.60384935	     36.38412390	     -1.17745981	     64.55181016	    126.73629258	     69.98241691
     14.08333330	     11.85188906	    -10.55564566	      5.63067330	     -0.11317589	      0.98287570	      0.09320912	     32.22674150	      2.62722492	     -8.16388278	     34.00550305	      0.59350799	      7.94489560	     -8.59444954	     -7.49999987	     -2.92454583	     -6.55860604	     -8.34451756	     23.82235266	      0.41577849	    -11.58867545	      3.30400104	     -7.49999987	     -8.63082517	      8.92970522	     -4.88774324	     32.41513874	      1.26235977	     67.48448350	    126.03467690	     82.04726052	     35.19661287	     -1.10937036	     64.39641478	    126.62284250	     69.12191420
     14.10000000	     11.25016901	     -9.98255472	      5.74188112	     -0.11161522	      0.98201010	      0.09290787	     34.55298580	      1.46492626	     -6.67097618	     43.09118166	      0.75208300	     11.57906342	    -11.79635668	     -7.49999987	     -1.58993202	     -6.07486796	     -6.78277850	     22.74186019	      0.39692034	      2.28655427	      3.51924523	     -7.49999987	     -7.69647496	      7.74338977	     -5.14472948	     30.76114015	      0.82764223	     67.01615027	    126.48391953	     84.08162087	     34.16504950	     -1.16172651	     64.57110074	    126.18830454	     69.68915759
     14.11666670	     10.97371510	     -9.54988102	      5.76471119	     -0.10949227	      0.98141668	      0.09352360	     36.25240171	      1.07975507	     -5.31924506	     50.13402643	      0.87500383	     14.75822571	    -11.90209074	     -7.49999987	     -0.72113276	     -5.66891092	     -5.45452853	     21.59465669	      0.37689786	      9.29012230	      1.88136109	     -7.49999987	     -7.23243813	      6.88195793	     -5.43439229	     29.31895850	      0.56715682	     66.78065424	    126.62945142	     82.78917334	     33.16205883	     -1.37461721	     64.49631467	    125.95260186	     69.13579923
     14.13333330	     10.20135264	     -9.26432302	      5.60361843	     -0.10569218	      0.98004012	      0.09419532	     38.42502126	      1.07404559	     -5.33647610	     54.48054176	      0.95086483	     18.73739307	     -7.22581465	     -7.49999987	     -0.54482952	     -5.25880884	     -4.94481496	     20.65062342	      0.36042137	     13.16770006	      0.76096212	     -7.49999987	     -6.26808288	      6.18153361	     -5.65909476	     27.53815638	      0.28553101	     66.53433899	    126.93578305	     83.09133403	     31.85177716	     -1.51135234	     64.32967747	    125.92864871	     69.22199874
     14.15000000	      9.70272927	     -9.20763646	      5.58155126	     -0.10413967	      0.97869614	      0.09484205	     40.15106470	      1.19259588	     -4.69176208	     61.52271365	      1.07377392	     21.77229108	     -6.66941352	     -7.49999987	     -0.47206886	     -5.10739164	     -4.64953789	     19.95390536	      0.34826135	     14.78820740	     -0.93519851	     -7.49999987	     -5.72224396	      6.01438023	     -5.89323890	     25.89078671	     -0.03473830	     66.48150723	    127.31845979	     83.38571100	     30.76535143	     -1.68389638	     64.11852641	    125.79983563	     69.31068329
     14.16666670	      9.54736688	     -9.46889698	      5.25917058	     -0.10500456	      0.98050750	      0.09499705	     40.98995866	      1.49318164	     -4.89754431	     66.67297528	      1.16366294	     23.13021318	     -7.58375782	     -7.49999987	     -0.62373093	     -5.28712577	     -5.02757164	     19.91469822	      0.34757705	     15.35200921	     -1.45645676	     -7.49999987	     -5.75455258	      6.31759364	     -5.94297028	     24.76358205	     -0.54556589	     66.69742449	    127.69482254	     83.30347997	     29.98802405	     -1.88986969	     63.75998081	    125.67256904	     69.27643565
     14.18333330	      8.62925518	     -9.27743006	      5.10011236	     -0.10810751	      0.98092399	      0.09537247	     42.59626198	      1.26244877	     -4.35605175	     72.00034433	      1.25664307	     23.82026420	     -9.29968791	     -7.49999987	      0.14103962	     -4.91078601	     -5.04485058	     19.73496305	      0.34444008	     15.18788276	     -1.93736844	     -7.49999987	     -4.85540444	      5.97004274	     -5.94730557	     23.12145467	     -1.14993693	     66.23915482	    127.84083260	     83.50848736	     29.18461862	     -2.21001666	     62.90628682	    125.50422802	     69.34265099
     14.20000000	      8.13302976	     -9.35147893	      4.38136620	     -0.10652065	      0.97977529	      0.09577070	     43.19910846	      1.75681873	     -3.61820295	     76.19395662	      1.32983541	     24.12759570	    -10.81994562	     -7.49999987	      0.24612042	     -4.90086404	     -5.81619751	     19.09000159	      0.33318338	     14.65943070	     -2.15299758	     -7.49999987	     -4.87380756	      5.93969535	     -5.87350307	     22.23497728	     -2.11010360	     65.80228728	    127.28349657	     83.53852146	     28.13170517	     -2.73997998	     61.89382715	    125.37170412	     69.36433897
     14.21666670	      7.82317332	     -9.17328946	      4.38343678	     -0.11248232	      0.98265143	      0.09727798	     43.97984275	      1.95822149	     -3.16325732	     79.39756694	      1.38574896	     23.33464409	    -12.72980161	     -7.49999987	      1.27323861	     -4.88226087	     -6.30946779	     19.94375714	      0.34808423	     13.62338050	     -2.48785976	     -7.49999987	     -5.73579360	      5.63288775	     -5.96401478	     21.13511887	     -3.59986739	     64.71088238	    126.27444788	     83.59464651	     27.24641267	     -3.66028583	     60.82654603	    125.37188024	     69.41615225
